HIERARCHY
ROOT mixamorig:Hips
{
	OFFSET -0.000008 104.274872 1.554316
	CHANNELS 6 Xposition Yposition Zposition Xrotation Yrotation Zrotation
	JOINT mixamorig:Spine
	{
		OFFSET -0.000005 10.181595 0.131519
		CHANNELS 6 Xposition Yposition Zposition Xrotation Yrotation Zrotation
		JOINT mixamorig:Spine1
		{
			OFFSET -0.000000 9.893959 -1.470707
			CHANNELS 6 Xposition Yposition Zposition Xrotation Yrotation Zrotation
			JOINT mixamorig:Spine2
			{
				OFFSET -0.000000 9.220757 -1.370641
				CHANNELS 6 Xposition Yposition Zposition Xrotation Yrotation Zrotation
				JOINT mixamorig:Neck
				{
					OFFSET 0.000001 16.740417 -2.049036
					CHANNELS 6 Xposition Yposition Zposition Xrotation Yrotation Zrotation
					JOINT mixamorig:Head
					{
						OFFSET 0.000000 9.617874 1.685006
						CHANNELS 6 Xposition Yposition Zposition Xrotation Yrotation Zrotation
						JOINT mixamorig:HeadTop_End
						{
							OFFSET 0.000002 22.037354 7.501101
							CHANNELS 6 Xposition Yposition Zposition Xrotation Yrotation Zrotation
							End Site
							{
								OFFSET 0.000168 2310.654297 -282.823242
							}
						}
					}
				}
				JOINT mixamorig:RightShoulder
				{
					OFFSET -4.569970 11.014908 -2.160885
					CHANNELS 6 Xposition Yposition Zposition Xrotation Yrotation Zrotation
					JOINT mixamorig:RightArm
					{
						OFFSET -10.592851 -0.524811 -2.232101
						CHANNELS 6 Xposition Yposition Zposition Xrotation Yrotation Zrotation
						JOINT mixamorig:RightForeArm
						{
							OFFSET -27.841511 0.000031 -0.000004
							CHANNELS 6 Xposition Yposition Zposition Xrotation Yrotation Zrotation
							JOINT mixamorig:RightHand
							{
								OFFSET -28.328831 -0.000015 0.000015
								CHANNELS 6 Xposition Yposition Zposition Xrotation Yrotation Zrotation
								JOINT mixamorig:RightHandThumb1
								{
									OFFSET -2.464806 -1.573990 2.681852
									CHANNELS 6 Xposition Yposition Zposition Xrotation Yrotation Zrotation
									JOINT mixamorig:RightHandThumb2
									{
										OFFSET -3.215179 -1.872803 1.924282
										CHANNELS 6 Xposition Yposition Zposition Xrotation Yrotation Zrotation
										JOINT mixamorig:RightHandThumb3
										{
											OFFSET -2.654831 -1.527969 1.512609
											CHANNELS 6 Xposition Yposition Zposition Xrotation Yrotation Zrotation
											JOINT mixamorig:RightHandThumb4
											{
												OFFSET -2.018814 -1.152008 1.108052
												CHANNELS 6 Xposition Yposition Zposition Xrotation Yrotation Zrotation
												End Site
												{
													OFFSET -188.809540 -114.533607 132.431396
												}
											}
										}
									}
								}
								JOINT mixamorig:RightHandIndex1
								{
									OFFSET -9.108284 -0.517868 2.259835
									CHANNELS 6 Xposition Yposition Zposition Xrotation Yrotation Zrotation
									JOINT mixamorig:RightHandIndex2
									{
										OFFSET -3.699989 0.000000 0.001215
										CHANNELS 6 Xposition Yposition Zposition Xrotation Yrotation Zrotation
										JOINT mixamorig:RightHandIndex3
										{
											OFFSET -2.850006 0.000031 -0.000522
											CHANNELS 6 Xposition Yposition Zposition Xrotation Yrotation Zrotation
											JOINT mixamorig:RightHandIndex4
											{
												OFFSET -2.772186 -0.000015 -0.000020
												CHANNELS 6 Xposition Yposition Zposition Xrotation Yrotation Zrotation
												End Site
												{
													OFFSET -277.218445 0.000000 -0.050231
												}
											}
										}
									}
								}
								JOINT mixamorig:RightHandMiddle1
								{
									OFFSET -9.532516 -0.000031 -0.000023
									CHANNELS 6 Xposition Yposition Zposition Xrotation Yrotation Zrotation
									JOINT mixamorig:RightHandMiddle2
									{
										OFFSET -3.700005 -0.000015 0.003713
										CHANNELS 6 Xposition Yposition Zposition Xrotation Yrotation Zrotation
										JOINT mixamorig:RightHandMiddle3
										{
											OFFSET -2.949974 0.000015 -0.002054
											CHANNELS 6 Xposition Yposition Zposition Xrotation Yrotation Zrotation
											JOINT mixamorig:RightHandMiddle4
											{
												OFFSET -2.946640 0.000000 -0.000156
												CHANNELS 6 Xposition Yposition Zposition Xrotation Yrotation Zrotation
												End Site
												{
													OFFSET -294.664337 0.000000 -0.113670
												}
											}
										}
									}
								}
								JOINT mixamorig:RightHandRing1
								{
									OFFSET -9.103600 -0.043076 -1.865134
									CHANNELS 6 Xposition Yposition Zposition Xrotation Yrotation Zrotation
									JOINT mixamorig:RightHandRing2
									{
										OFFSET -3.379288 0.000000 -0.001055
										CHANNELS 6 Xposition Yposition Zposition Xrotation Yrotation Zrotation
										JOINT mixamorig:RightHandRing3
										{
											OFFSET -2.889687 -0.000015 0.000379
											CHANNELS 6 Xposition Yposition Zposition Xrotation Yrotation Zrotation
											JOINT mixamorig:RightHandRing4
											{
												OFFSET -2.638809 -0.000015 0.000941
												CHANNELS 6 Xposition Yposition Zposition Xrotation Yrotation Zrotation
												End Site
												{
													OFFSET -263.880371 0.000000 0.516020
												}
											}
										}
									}
								}
								JOINT mixamorig:RightHandPinky1
								{
									OFFSET -8.076683 -0.486710 -3.806280
									CHANNELS 6 Xposition Yposition Zposition Xrotation Yrotation Zrotation
									JOINT mixamorig:RightHandPinky2
									{
										OFFSET -3.600014 -0.000015 -0.003747
										CHANNELS 6 Xposition Yposition Zposition Xrotation Yrotation Zrotation
										JOINT mixamorig:RightHandPinky3
										{
											OFFSET -2.099983 0.000000 -0.005739
											CHANNELS 6 Xposition Yposition Zposition Xrotation Yrotation Zrotation
											JOINT mixamorig:RightHandPinky4
											{
												OFFSET -2.115768 -0.000031 -0.003680
												CHANNELS 6 Xposition Yposition Zposition Xrotation Yrotation Zrotation
												End Site
												{
													OFFSET -211.577087 0.000000 -0.350686
												}
											}
										}
									}
								}
							}
						}
					}
				}
				JOINT mixamorig:LeftShoulder
				{
					OFFSET 4.570447 11.014725 -2.160855
					CHANNELS 6 Xposition Yposition Zposition Xrotation Yrotation Zrotation
					JOINT mixamorig:LeftArm
					{
						OFFSET 10.592371 -0.524597 -2.232119
						CHANNELS 6 Xposition Yposition Zposition Xrotation Yrotation Zrotation
						JOINT mixamorig:LeftForeArm
						{
							OFFSET 27.841532 -0.000031 0.000026
							CHANNELS 6 Xposition Yposition Zposition Xrotation Yrotation Zrotation
							JOINT mixamorig:LeftHand
							{
								OFFSET 28.328846 -0.000061 0.000022
								CHANNELS 6 Xposition Yposition Zposition Xrotation Yrotation Zrotation
								JOINT mixamorig:LeftHandThumb1
								{
									OFFSET 2.466141 -1.576172 2.681732
									CHANNELS 6 Xposition Yposition Zposition Xrotation Yrotation Zrotation
									JOINT mixamorig:LeftHandThumb2
									{
										OFFSET 3.217812 -1.872070 1.916482
										CHANNELS 6 Xposition Yposition Zposition Xrotation Yrotation Zrotation
										JOINT mixamorig:LeftHandThumb3
										{
											OFFSET 2.656029 -1.528778 1.514513
											CHANNELS 6 Xposition Yposition Zposition Xrotation Yrotation Zrotation
											JOINT mixamorig:LeftHandThumb4
											{
												OFFSET 2.020889 -1.154053 1.115139
												CHANNELS 6 Xposition Yposition Zposition Xrotation Yrotation Zrotation
												End Site
												{
													OFFSET 190.885437 -115.081749 130.048782
												}
											}
										}
									}
								}
								JOINT mixamorig:LeftHandIndex1
								{
									OFFSET 9.109314 -0.518021 2.259871
									CHANNELS 6 Xposition Yposition Zposition Xrotation Yrotation Zrotation
									JOINT mixamorig:LeftHandIndex2
									{
										OFFSET 3.699989 0.000000 -0.000322
										CHANNELS 6 Xposition Yposition Zposition Xrotation Yrotation Zrotation
										JOINT mixamorig:LeftHandIndex3
										{
											OFFSET 2.850006 0.000000 0.000352
											CHANNELS 6 Xposition Yposition Zposition Xrotation Yrotation Zrotation
											JOINT mixamorig:LeftHandIndex4
											{
												OFFSET 2.774864 -0.000031 -0.000027
												CHANNELS 6 Xposition Yposition Zposition Xrotation Yrotation Zrotation
												End Site
												{
													OFFSET 277.486267 0.000000 -0.009857
												}
											}
										}
									}
								}
								JOINT mixamorig:LeftHandMiddle1
								{
									OFFSET 9.533394 0.000061 0.000044
									CHANNELS 6 Xposition Yposition Zposition Xrotation Yrotation Zrotation
									JOINT mixamorig:LeftHandMiddle2
									{
										OFFSET 3.699989 -0.000015 -0.000231
										CHANNELS 6 Xposition Yposition Zposition Xrotation Yrotation Zrotation
										JOINT mixamorig:LeftHandMiddle3
										{
											OFFSET 2.949997 -0.000015 -0.000059
											CHANNELS 6 Xposition Yposition Zposition Xrotation Yrotation Zrotation
											JOINT mixamorig:LeftHandMiddle4
											{
												OFFSET 2.952896 0.000031 0.000063
												CHANNELS 6 Xposition Yposition Zposition Xrotation Yrotation Zrotation
												End Site
												{
													OFFSET 295.289337 0.000000 0.022810
												}
											}
										}
									}
								}
								JOINT mixamorig:LeftHandRing1
								{
									OFFSET 9.104523 -0.042999 -1.865074
									CHANNELS 6 Xposition Yposition Zposition Xrotation Yrotation Zrotation
									JOINT mixamorig:LeftHandRing2
									{
										OFFSET 3.150009 -0.000031 0.000043
										CHANNELS 6 Xposition Yposition Zposition Xrotation Yrotation Zrotation
										JOINT mixamorig:LeftHandRing3
										{
											OFFSET 2.949982 -0.000015 0.000040
											CHANNELS 6 Xposition Yposition Zposition Xrotation Yrotation Zrotation
											JOINT mixamorig:LeftHandRing4
											{
												OFFSET 2.644348 0.000000 0.000057
												CHANNELS 6 Xposition Yposition Zposition Xrotation Yrotation Zrotation
												End Site
												{
													OFFSET 264.434631 0.000000 0.012105
												}
											}
										}
									}
								}
								JOINT mixamorig:LeftHandPinky1
								{
									OFFSET 8.077789 -0.486847 -3.806259
									CHANNELS 6 Xposition Yposition Zposition Xrotation Yrotation Zrotation
									JOINT mixamorig:LeftHandPinky2
									{
										OFFSET 3.599953 0.000031 0.014727
										CHANNELS 6 Xposition Yposition Zposition Xrotation Yrotation Zrotation
										JOINT mixamorig:LeftHandPinky3
										{
											OFFSET 2.100021 0.000015 0.007705
											CHANNELS 6 Xposition Yposition Zposition Xrotation Yrotation Zrotation
											JOINT mixamorig:LeftHandPinky4
											{
												OFFSET 2.125504 0.000031 0.007517
												CHANNELS 6 Xposition Yposition Zposition Xrotation Yrotation Zrotation
												End Site
												{
													OFFSET 212.550781 0.000000 0.625752
												}
											}
										}
									}
								}
							}
						}
					}
				}
			}
		}
	}
	JOINT mixamorig:RightUpLeg
	{
		OFFSET -8.207787 -6.751648 -1.599560
		CHANNELS 6 Xposition Yposition Zposition Xrotation Yrotation Zrotation
		JOINT mixamorig:RightLeg
		{
			OFFSET -0.000002 -44.370117 0.345942
			CHANNELS 6 Xposition Yposition Zposition Xrotation Yrotation Zrotation
			JOINT mixamorig:RightFoot
			{
				OFFSET 0.000003 -44.423679 -3.043532
				CHANNELS 6 Xposition Yposition Zposition Xrotation Yrotation Zrotation
				JOINT mixamorig:RightToeBase
				{
					OFFSET -0.000002 -8.728671 10.710558
					CHANNELS 6 Xposition Yposition Zposition Xrotation Yrotation Zrotation
					JOINT mixamorig:RightToe_End
					{
						OFFSET -0.000001 -0.000679 9.278119
						CHANNELS 6 Xposition Yposition Zposition Xrotation Yrotation Zrotation
						End Site
						{
							OFFSET 0.000000 -0.067690 927.812134
						}
					}
				}
			}
		}
	}
	JOINT mixamorig:LeftUpLeg
	{
		OFFSET 8.207793 -6.751686 -1.599556
		CHANNELS 6 Xposition Yposition Zposition Xrotation Yrotation Zrotation
		JOINT mixamorig:LeftLeg
		{
			OFFSET -0.000004 -44.370014 0.346954
			CHANNELS 6 Xposition Yposition Zposition Xrotation Yrotation Zrotation
			JOINT mixamorig:LeftFoot
			{
				OFFSET -0.000001 -44.423672 -3.044401
				CHANNELS 6 Xposition Yposition Zposition Xrotation Yrotation Zrotation
				JOINT mixamorig:LeftToeBase
				{
					OFFSET -0.000002 -8.728669 10.710558
					CHANNELS 6 Xposition Yposition Zposition Xrotation Yrotation Zrotation
					JOINT mixamorig:LeftToe_End
					{
						OFFSET -0.000003 -0.000679 9.278133
						CHANNELS 6 Xposition Yposition Zposition Xrotation Yrotation Zrotation
						End Site
						{
							OFFSET 0.000000 -0.068021 927.813477
						}
					}
				}
			}
		}
	}
}
MOTION
Frames: 3
Frame Time: 0.033333
0.000006 104.270477 1.554256 0.000010 0.000003 -0.000113 -0.000005 10.181587 0.131522 0.000001 -0.000003 0.000084 -0.000000 9.893967 -1.470711 0.000001 0.000000 -0.000000 -0.000000 9.220802 -1.370642 0.000000 -0.000000 -0.000000 0.000001 16.740433 -2.049030 0.000000 -0.000000 -0.000000 0.000000 9.617859 1.685014 0.000000 0.000000 0.000000 0.000002 22.037384 7.501101 0.000000 -0.000000 0.000000 -4.569968 11.014880 -2.160881 0.000008 0.000001 -0.000038 -10.592875 -0.524755 -2.231918 74.624475 26.661903 -20.474054 -27.841528 -0.000004 0.000546 -57.063447 107.770809 73.384140 -28.328831 0.000004 0.000028 -0.000319 -0.000047 0.000008 -2.464446 -1.573916 2.682392 -29.166202 -153.866158 28.698689 -3.215274 -1.872594 1.924633 154.996581 32.610328 9.550614 -2.654950 -1.527892 1.513088 151.920428 26.341709 -34.148757 -2.018838 -1.151999 1.108067 -0.000007 -0.000002 0.000004 -9.108397 -0.517545 2.260139 103.422000 17.224733 -21.780046 -3.700066 0.000308 0.001526 99.534065 13.946706 -16.424412 -2.850095 0.000363 -0.000250 97.734242 11.967119 -13.685786 -2.772155 -0.000001 -0.000017 0.000000 -0.000000 -0.000000 -9.532599 0.000297 0.000225 90.270335 14.531844 -14.740720 -3.700054 0.000340 0.003957 92.326324 10.577326 -10.916305 -2.950058 0.000332 -0.001824 91.146306 11.167370 -11.384383 -2.946632 -0.000013 -0.000157 -0.000000 0.000001 -0.000000 -9.103688 -0.042752 -1.864884 88.638637 15.774378 -15.365364 -3.379321 0.000341 -0.000829 91.834373 6.799267 -7.037205 -2.889712 0.000355 0.000618 93.900689 4.940361 -5.335594 -2.638804 -0.000027 0.000940 0.000006 -0.000001 -0.000005 -8.076743 -0.486374 -3.806057 82.320889 14.165963 -12.270297 -3.600001 0.000293 -0.003556 85.496265 4.721424 -4.052744 -2.100003 0.000318 -0.005529 87.027327 3.746427 -3.354469 -2.115769 -0.000042 -0.003679 0.000000 -0.000000 -0.000003 4.570446 11.014691 -2.160851 -0.000018 0.000010 -0.000021 10.592411 -0.524476 -2.232365 73.775544 -15.660283 11.784954 27.841825 0.000067 -0.000185 101.497533 -70.517591 81.735364 28.328840 -0.000028 0.000024 0.000022 -0.000089 -0.000001 2.465947 -1.576155 2.681900 -44.091952 162.748737 0.943998 3.217776 -1.871748 1.916366 153.569741 -31.035031 -1.012182 2.656098 -1.528613 1.514450 139.156307 -28.239566 40.213087 2.020881 -1.154078 1.115155 -0.000001 0.000008 -0.000003 9.109369 -0.517868 2.259739 81.418689 -14.452103 12.441435 3.700051 0.000130 -0.000464 78.436117 -15.581429 12.756579 2.850066 0.000162 0.000215 78.136196 -14.314333 11.639243 2.774873 -0.000032 -0.000026 -0.000000 -0.000002 0.000003 9.533460 0.000204 -0.000102 81.514585 -13.348103 11.510330 3.700072 0.000156 -0.000375 84.502896 -14.493836 13.175693 2.950061 0.000154 -0.000180 83.669503 -19.573702 17.558888 2.952873 -0.000015 0.000068 -0.000003 -0.000001 0.000000 9.104580 -0.042853 -1.865246 81.365742 -12.975365 11.167900 3.150039 0.000196 -0.000107 87.221236 -12.276351 11.700819 2.950028 0.000158 -0.000057 88.416833 -15.222222 14.813762 2.644342 0.000045 0.000055 -0.000001 -0.000001 -0.000000 8.077847 -0.486733 -3.806417 72.538760 -14.905245 11.395813 3.599992 0.000161 0.014549 74.045616 -12.190599 9.592369 2.100037 0.000169 0.007550 78.079704 -12.375688 10.444520 2.125502 -0.000017 0.007517 -0.000000 -0.000002 0.000001 -8.207786 -6.751667 -1.599560 -0.077001 -0.000003 0.000080 -0.000002 -44.370110 0.345938 0.153719 -0.000000 -0.000000 0.000000 -44.423679 -3.043532 -0.076700 0.000000 -0.000002 -0.000006 -8.728667 10.710559 -0.000009 -0.000000 -0.000000 -0.000001 -0.000679 9.278123 0.000000 -0.000000 -0.000000 8.207792 -6.751710 -1.599556 -0.074518 -0.000003 0.000081 -0.000002 -44.370014 0.346960 0.148822 0.000002 0.000000 -0.000001 -44.423664 -3.044403 -0.074314 0.000000 -0.000002 -0.000004 -8.728671 10.710558 0.000007 -0.000000 -0.000000 0.000000 -0.000680 9.278137 -0.000000 0.000000 -0.000001 
0.000006 104.270477 1.554256 0.000010 0.000003 -0.000113 -0.000005 10.181587 0.131522 0.000001 -0.000003 0.000084 -0.000000 9.893967 -1.470711 0.000001 0.000000 -0.000000 -0.000000 9.220802 -1.370642 0.000000 -0.000000 -0.000000 0.000001 16.740433 -2.049030 0.000000 -0.000000 -0.000000 0.000000 9.617859 1.685014 0.000000 0.000000 0.000000 0.000002 22.037384 7.501101 0.000000 -0.000000 0.000000 -4.569968 11.014880 -2.160881 0.000008 0.000001 -0.000038 -10.592871 -0.524776 -2.231883 74.819907 32.653348 -25.255994 -27.841518 0.000010 0.000526 -55.815599 104.263917 68.521031 -28.328827 0.000004 0.000026 -0.000321 -0.000043 0.000003 -2.464413 -1.573809 2.682336 -44.842149 -160.663630 -2.678814 -3.215263 -1.872539 1.924613 147.580498 32.151797 16.812068 -2.654958 -1.527835 1.513044 144.981570 28.566585 -20.846104 -2.018838 -1.151996 1.108054 -0.000004 -0.000002 0.000004 -9.108374 -0.517548 2.260120 100.531225 13.485319 -16.244483 -3.700045 0.000336 0.001536 99.272613 10.448893 -12.253458 -2.850084 0.000377 -0.000256 98.877288 9.466459 -11.049579 -2.772178 -0.000017 -0.000020 -0.000001 -0.000001 -0.000000 -9.532583 0.000275 0.000221 89.071397 14.216443 -14.127780 -3.700078 0.000323 0.003949 89.893957 11.864012 -11.747984 -2.950066 0.000330 -0.001816 92.733991 12.091141 -12.670126 -2.946631 0.000014 -0.000155 0.000001 -0.000002 -0.000001 -9.103693 -0.042782 -1.864889 85.764602 18.094778 -16.781452 -3.379337 0.000319 -0.000831 87.855460 10.594532 -10.224230 -2.889757 0.000341 0.000618 95.527955 7.401175 -8.200089 -2.638811 -0.000014 0.000939 -0.000002 0.000001 0.000004 -8.076755 -0.486400 -3.806054 79.451827 17.055336 -14.078575 -3.600043 0.000270 -0.003552 82.074845 9.194347 -7.694264 -2.100018 0.000309 -0.005497 86.804389 6.250482 -5.702513 -2.115752 -0.000055 -0.003682 -0.000001 -0.000000 -0.000000 4.570446 11.014691 -2.160851 -0.000018 0.000010 -0.000021 10.592398 -0.524478 -2.232368 73.687742 -11.669251 8.757023 27.841825 0.000055 -0.000198 104.874652 -72.800500 87.581699 28.328840 -0.000029 0.000022 0.000020 -0.000089 -0.000000 2.466178 -1.576143 2.681873 -13.268910 160.263163 -62.869924 3.217841 -1.871778 1.916405 162.294734 -26.323735 23.958728 2.656103 -1.528648 1.514477 140.481596 -27.331816 53.549646 2.020891 -1.154066 1.115143 -0.000002 -0.000000 -0.000001 9.109393 -0.517876 2.259742 82.155619 -20.836165 18.198964 3.700031 0.000148 -0.000472 78.761664 -12.666425 10.424966 2.850052 0.000162 0.000206 77.528835 -10.147691 8.155130 2.774886 -0.000030 -0.000028 -0.000000 0.000000 0.000000 9.533484 0.000178 -0.000091 82.617272 -19.899447 17.519232 3.700035 0.000169 -0.000395 85.326452 -10.969113 10.111193 2.950072 0.000179 -0.000214 85.530368 -11.959946 11.070037 2.952873 -0.000015 0.000058 0.000000 -0.000000 0.000000 9.104601 -0.042869 -1.865213 82.467287 -19.141428 16.814794 3.150058 0.000199 -0.000102 87.691207 -11.018698 10.587650 2.950019 0.000190 -0.000088 88.070631 -10.123716 9.791752 2.644325 0.000033 0.000057 0.000003 0.000001 -0.000000 8.077863 -0.486742 -3.806404 76.198833 -19.848571 16.104838 3.600007 0.000177 0.014573 78.023764 -15.421676 12.945241 2.100029 0.000177 0.007559 79.691075 -12.335282 10.712046 2.125497 -0.000015 0.007516 0.000000 0.000001 -0.000000 -8.207786 -6.751667 -1.599560 -0.077001 -0.000003 0.000080 -0.000002 -44.370110 0.345938 0.153719 -0.000000 -0.000000 0.000000 -44.423679 -3.043532 -0.076700 0.000000 -0.000002 -0.000006 -8.728667 10.710559 -0.000009 -0.000000 -0.000000 -0.000001 -0.000679 9.278123 0.000000 -0.000000 -0.000000 8.207792 -6.751710 -1.599556 -0.074518 -0.000003 0.000081 -0.000002 -44.370014 0.346960 0.148822 0.000002 0.000000 -0.000001 -44.423664 -3.044403 -0.074314 0.000000 -0.000002 -0.000004 -8.728671 10.710558 0.000007 -0.000000 -0.000000 0.000000 -0.000680 9.278137 -0.000000 0.000000 -0.000001 
0.000006 104.270477 1.554256 0.000010 0.000003 -0.000113 -0.000005 10.181587 0.131522 0.000001 -0.000003 0.000084 -0.000000 9.893967 -1.470711 0.000001 0.000000 -0.000000 -0.000000 9.220802 -1.370642 0.000000 -0.000000 -0.000000 0.000001 16.740433 -2.049030 0.000000 -0.000000 -0.000000 0.000000 9.617859 1.685014 0.000000 0.000000 0.000000 0.000002 22.037384 7.501101 0.000000 -0.000000 0.000000 -4.569968 11.014880 -2.160881 0.000008 0.000001 -0.000038 -10.592865 -0.524790 -2.231871 74.759883 35.156418 -27.212022 -27.841518 0.000016 0.000541 -54.717455 103.596560 66.650147 -28.328815 0.000021 0.000025 -0.000324 -0.000041 0.000005 -2.464418 -1.573792 2.682338 -46.019793 -161.604612 -5.413397 -3.215269 -1.872537 1.924616 146.755152 32.206750 19.078793 -2.654963 -1.527835 1.513040 144.367496 28.563928 -21.470983 -2.018838 -1.152001 1.108043 -0.000002 0.000000 0.000004 -9.108375 -0.517534 2.260124 100.512340 13.265146 -15.975797 -3.700058 0.000326 0.001506 99.118667 10.510194 -12.292079 -2.850076 0.000377 -0.000243 98.936376 9.445828 -11.036980 -2.772168 -0.000000 -0.000021 0.000001 -0.000001 -0.000001 -9.532581 0.000282 0.000215 89.206526 13.843274 -13.792088 -3.700071 0.000325 0.003953 89.860557 12.119683 -11.995978 -2.950069 0.000332 -0.001822 92.956505 12.251019 -12.887217 -2.946631 0.000001 -0.000155 -0.000005 -0.000000 -0.000000 -9.103707 -0.042764 -1.864895 86.142469 17.958072 -16.763031 -3.379339 0.000321 -0.000818 88.269765 10.876495 -10.571850 -2.889736 0.000338 0.000645 96.240323 7.498893 -8.411813 -2.638806 -0.000022 0.000940 0.000001 -0.000002 0.000002 -8.076749 -0.486386 -3.806056 79.806102 16.964897 -14.090481 -3.600055 0.000273 -0.003555 82.469815 9.015465 -7.591583 -2.100001 0.000295 -0.005521 87.219357 5.982366 -5.489280 -2.115774 -0.000042 -0.003678 -0.000000 -0.000000 -0.000004 4.570446 11.014691 -2.160851 -0.000018 0.000010 -0.000021 10.592413 -0.524471 -2.232359 73.135016 -17.460038 12.996872 27.841825 0.000069 -0.000217 107.645045 -73.602412 91.304678 28.328831 -0.000028 0.000018 0.000024 -0.000088 0.000000 2.466197 -1.576087 2.681844 -4.132195 163.241029 -80.237463 3.217859 -1.871816 1.916413 161.279604 -23.820848 35.229040 2.656117 -1.528702 1.514476 138.112490 -28.095835 54.548616 2.020891 -1.154071 1.115142 0.000001 0.000001 0.000002 9.109379 -0.517871 2.259737 82.235887 -20.323124 17.773073 3.700037 0.000156 -0.000463 78.886438 -12.150447 10.021832 2.850033 0.000166 0.000204 78.099197 -9.550944 7.753010 2.774880 -0.000030 -0.000022 -0.000000 0.000001 -0.000000 9.533459 0.000207 -0.000101 82.805566 -19.791202 17.480399 3.700055 0.000182 -0.000374 84.779095 -10.861633 9.916940 2.950056 0.000180 -0.000214 84.946824 -11.373707 10.420566 2.952880 -0.000014 0.000060 0.000004 -0.000003 0.000000 9.104585 -0.042844 -1.865220 83.309327 -19.086407 17.012794 3.150051 0.000206 -0.000107 86.932045 -11.757039 11.149460 2.950018 0.000187 -0.000083 86.929730 -10.107646 9.584179 2.644310 0.000030 0.000054 -0.000002 -0.000002 -0.000000 8.077833 -0.486713 -3.806405 77.182934 -19.970659 16.486314 3.600015 0.000164 0.014564 78.030390 -16.514060 13.842717 2.100049 0.000175 0.007555 79.038908 -12.566956 10.782500 2.125499 0.000001 0.007516 0.000000 -0.000003 -0.000001 -8.207786 -6.751667 -1.599560 -0.077001 -0.000003 0.000080 -0.000002 -44.370110 0.345938 0.153719 -0.000000 -0.000000 0.000000 -44.423679 -3.043532 -0.076700 0.000000 -0.000002 -0.000006 -8.728667 10.710559 -0.000009 -0.000000 -0.000000 -0.000001 -0.000679 9.278123 0.000000 -0.000000 -0.000000 8.207792 -6.751710 -1.599556 -0.074518 -0.000003 0.000081 -0.000002 -44.370014 0.346960 0.148822 0.000002 0.000000 -0.000001 -44.423664 -3.044403 -0.074314 0.000000 -0.000002 -0.000004 -8.728671 10.710558 0.000007 -0.000000 -0.000000 0.000000 -0.000680 9.278137 -0.000000 0.000000 -0.000001 
